<svg xmlns="http://www.w3.org/2000/svg" fill="#22C55E" class="fill-current" viewBox="0 0 60 70" x="0px" y="0px"><path d="M30,2a7.968,7.968,0,0,0-7.3,4.807A27.4,27.4,0,0,1,30,17.063,27.4,27.4,0,0,1,37.305,6.807,7.968,7.968,0,0,0,30,2Z"></path><path d="M46,11a17.936,17.936,0,0,1,1.843-7.9A26.048,26.048,0,0,0,30.954,20.3a1,1,0,0,1-1.908,0A26.05,26.05,0,0,0,12.157,3.1,17.94,17.94,0,0,1,14,11v7a16,16,0,0,0,32,0Z"></path><path d="M13.685,41.86a30.266,30.266,0,0,1-5.658-.668A23.078,23.078,0,0,0,14.1,55.682,7.688,7.688,0,0,0,19.506,58a7.122,7.122,0,0,0,5.237-2.049v0A7.393,7.393,0,0,0,27,50.665a7.2,7.2,0,0,0-2.125-5.177C21.7,42.314,17.626,42.084,13.685,41.86Z"></path><path d="M29,35.949V58h2V35.949c-.333.019-.662.051-1,.051S29.333,35.968,29,35.949Z"></path><path d="M35.125,45.487A7.208,7.208,0,0,0,33,50.665a7.393,7.393,0,0,0,2.256,5.283v0A7.231,7.231,0,0,0,40.494,58,7.688,7.688,0,0,0,45.9,55.683a23.09,23.09,0,0,0,6.073-14.491,30.336,30.336,0,0,1-5.658.668C42.374,42.084,38.3,42.314,35.125,45.487Z"></path></svg>